<svg xmlns="http://www.w3.org/2000/svg" viewBox="0 0 370 71.13386160395407" height="51" width="100">
                    <defs id="SvgjsDefs1147"></defs>
                    <g id="SvgjsG1149" featurekey="Fok8m0-0"
                    transform="matrix(3.783292770385742,0,0,4.783292770385742,19.73002463677825,-22.380749308008856)"
                        fill="#007bff">
                        <path
                            d="M9.76 17.78 c0 0.72 0.44 0.86 1.22 0.74 l0 0.72 c-1.74 0.42 -2.48 1 -2.98 1 c-0.34 0 -0.54 -0.24 -0.5 -0.64 l0.14 -1.1 c-0.28 0.78 -1.06 1.7 -2.68 1.7 c-2.16 0 -4.36 -1.8 -4.36 -5.28 c0 -3.32 2.26 -5.1 4.3 -5.1 c1.34 0 2.12 0.72 2.6 1.38 l0 -2.5 c0 -0.7 -0.44 -0.9 -1.22 -0.8 l0 -0.66 c1.76 -0.32 2.54 -1.06 3.02 -1.06 c0.32 0 0.46 0.18 0.46 0.58 l0 11.02 z M5.52 19.5 c1.16 0 1.86 -1.14 1.98 -2.1 l0 -5.42 c-0.48 -0.7 -1.26 -1.48 -2.26 -1.48 c-1.48 0 -2.2 1.38 -2.2 3.96 c0 2.76 0.92 5.04 2.48 5.04 z M19.840000000000003 17.8 c0.2 0 0.28 0.2 0.14 0.46 c-0.54 1.12 -1.62 1.94 -3.36 1.94 c-2.68 0 -4.84 -1.82 -4.84 -5.22 c0 -3.32 2.24 -5.16 4.6 -5.16 c2.3 0 4.12 1.6 4.12 4.12 c0 0.76 -0.3 1.26 -1.08 1.26 l-5.24 0 c0.02 2.52 0.92 4.32 2.74 4.32 c1.02 0 1.74 -0.44 2.26 -1.42 c0.1 -0.18 0.16 -0.3 0.38 -0.3 l0.28 0 z M18.3 14.440000000000001 c0 -2.46 -0.54 -3.94 -1.92 -3.94 c-1.42 0 -2.18 1.48 -2.2 3.94 l4.12 0 z M25.200000000000003 20.08 l-3.04 -8.22 c-0.26 -0.7 -0.48 -1.08 -1.08 -1.18 l-0.48 -0.06 l0 -0.64 l4.72 0 l0 0.66 l-0.52 0.04 c-0.52 0.06 -0.66 0.5 -0.42 1.18 l2.08 5.8 l1.9 -5.76 c0.22 -0.72 -0.28 -1.16 -0.88 -1.22 l-0.62 -0.04 l0 -0.66 l4.08 0 l0 0.64 l-0.46 0.06 c-0.58 0.1 -1.06 0.36 -1.34 1.22 l-2.76 8.18 l-1.18 0 z M41.22 18.62 c0 0.5 0.54 0.66 1.22 0.74 l0 0.64 c-1.56 -0.06 -3.12 -0.06 -4.7 0 l0 -0.64 c0.68 -0.06 1.22 -0.24 1.22 -0.74 l0 -5.32 c0 -1.5 -0.22 -2.5 -1.26 -2.5 c-1.38 0 -2.46 1.58 -2.68 2 l0 5.82 c0 0.5 0.54 0.68 1.22 0.74 l0 0.64 c-1.56 -0.06 -3.12 -0.06 -4.68 0 l0 -0.64 c0.66 -0.08 1.2 -0.24 1.2 -0.74 l0 -6.38 c0 -0.7 -0.44 -0.86 -1.22 -0.76 l0 -0.64 c1.76 -0.32 2.54 -1.1 3 -1.1 c0.34 0 0.52 0.24 0.48 0.62 l-0.18 1.66 c0.42 -0.64 1.62 -2.22 3.48 -2.22 c1.62 0 2.9 0.68 2.9 3.46 l0 5.36 z M51.2 17.8 c0.2 0 0.28 0.2 0.14 0.46 c-0.54 1.12 -1.62 1.94 -3.36 1.94 c-2.68 0 -4.84 -1.82 -4.84 -5.22 c0 -3.32 2.24 -5.16 4.6 -5.16 c2.3 0 4.12 1.6 4.12 4.12 c0 0.76 -0.3 1.26 -1.08 1.26 l-5.24 0 c0.02 2.52 0.92 4.32 2.74 4.32 c1.02 0 1.74 -0.44 2.26 -1.42 c0.1 -0.18 0.16 -0.3 0.38 -0.3 l0.28 0 z M49.66 14.440000000000001 c0 -2.46 -0.54 -3.94 -1.92 -3.94 c-1.42 0 -2.18 1.48 -2.2 3.94 l4.12 0 z M60.28 17.259999999999998 c0 1.74 -1.68 2.98 -3.18 2.98 c-1.34 0 -2.08 -0.7 -2.68 -0.7 c-0.28 0 -0.44 0.16 -0.46 0.44 l-0.64 0 l-0.24 -2.72 l0.32 0 c0.26 0 0.48 0.04 0.56 0.32 c0.3 1.1 1.82 2.02 2.88 2.02 c0.92 0 1.5 -0.62 1.5 -1.46 c0 -1.08 -0.94 -1.54 -2.32 -2.24 c-1.4 -0.7 -2.96 -1.62 -2.96 -3.38 c0 -1.52 1.3 -2.7 3.02 -2.7 c1.32 0 1.76 0.56 2.28 0.56 c0.26 0 0.42 -0.14 0.48 -0.4 l0.66 0 l0.18 2.62 l-0.34 0 c-0.26 0 -0.4 -0.08 -0.52 -0.32 c-0.5 -1.12 -1.52 -1.86 -2.44 -1.86 s-1.46 0.66 -1.46 1.42 c0 0.94 0.7 1.4 1.84 1.96 c1.26 0.6 3.52 1.52 3.52 3.46 z M66.66 19.42 c-0.38 0.36 -1.12 0.72 -1.94 0.72 c-1.52 0 -2.56 -0.78 -2.56 -2.76 l0 -6.66 l-0.86 0 c-0.14 0 -0.22 -0.1 -0.22 -0.24 l0 -0.28 c0 -0.14 0.08 -0.22 0.22 -0.22 c1.36 0 1.92 -0.96 2.14 -2.72 l0.98 0 l0 2.72 l2.04 0 c0.14 0 0.22 0.08 0.22 0.22 l0 0.28 c0 0.14 -0.08 0.24 -0.22 0.24 l-2.04 0 l0 7.04 c0 0.8 0.18 1.5 1 1.5 c0.54 0 1 -0.34 1.24 -0.64 l0 0.8 z">
       </path>
    </g>
</svg>